<svg width="35" height="35" viewBox="0 0 35 35" fill="none" xmlns="http://www.w3.org/2000/svg">
<path d="M35 17.5732C35 7.97735 27.166 0.200195 17.5 0.200195C7.83398 0.200195 0 7.97735 0 17.5732C0 27.1691 7.83398 34.9463 17.5 34.9463C17.6025 34.9463 17.7051 34.9463 17.8076 34.9395V21.4211H14.0479V17.0711H17.8076V13.8679C17.8076 10.1558 20.0908 8.13343 23.4268 8.13343C25.0264 8.13343 26.4004 8.2488 26.7969 8.30309V12.1849H24.5C22.6885 12.1849 22.333 13.04 22.333 14.2954V17.0643H26.6738L26.1064 21.4143H22.333V34.2744C29.6475 32.191 35 25.5065 35 17.5732Z" fill="white"></path>
</svg>