<svg width="35" height="35" viewBox="0 0 35 35" fill="none" xmlns="http://www.w3.org/2000/svg">
<path d="M15.3203 20.6279L21.0128 17.373L15.3203 14.1182V20.6279Z" fill="white"></path>
<path d="M17.5 0C7.83649 0 0 7.77964 0 17.373C0 26.9664 7.83649 34.7461 17.5 34.7461C27.1635 34.7461 35 26.9664 35 17.373C35 7.77964 27.1635 0 17.5 0ZM28.4348 17.3908C28.4348 17.3908 28.4348 20.9141 27.9846 22.6131C27.7323 23.5431 26.9937 24.2763 26.0569 24.5265C24.3456 24.9738 17.5 24.9738 17.5 24.9738C17.5 24.9738 10.6723 24.9738 8.94306 24.5088C8.00632 24.2585 7.26772 23.525 7.01538 22.5951C6.5649 20.9141 6.5649 17.373 6.5649 17.373C6.5649 17.373 6.5649 13.85 7.01538 12.151C7.26746 11.2211 8.02422 10.4698 8.94306 10.2195C10.6544 9.77234 17.5 9.77234 17.5 9.77234C17.5 9.77234 24.3456 9.77234 26.0569 10.2373C26.9937 10.4876 27.7323 11.2211 27.9846 12.151C28.453 13.85 28.4348 17.3908 28.4348 17.3908V17.3908Z" fill="white"></path>
</svg>