<svg width="35" height="35" viewBox="0 0 35 35" fill="none" xmlns="http://www.w3.org/2000/svg">
<path d="M16.5144 14.4658L10.8438 20.4268L16.0043 17.6154L18.7008 20.4268L24.3396 14.4658L19.2362 17.2278L16.5144 14.4658Z" fill="white"></path>
<path d="M17.5 0.200195C7.83649 0.200195 0 7.97984 0 17.5732C0 27.1666 7.83649 34.9463 17.5 34.9463C27.1635 34.9463 35 27.1666 35 17.5732C35 7.97984 27.1635 0.200195 17.5 0.200195ZM17.6367 26.8729C16.5534 26.8729 15.5077 26.721 14.524 26.4398L10.9949 28.4314V24.6846C8.63117 22.8989 7.12166 20.1794 7.12166 17.1335C7.12166 11.7542 11.8294 7.39372 17.6367 7.39372C23.4443 7.39372 28.1518 11.7542 28.1518 17.1335C28.1518 22.5122 23.4443 26.8729 17.6367 26.8729Z" fill="white"></path>
</svg>