<svg width="111" height="33" viewBox="0 0 111 33" fill="none" xmlns="http://www.w3.org/2000/svg"><rect width="111" height="32.3459" rx="8" fill="#FABF13"></rect><path d="M19.0026 25.9815C19.0026 25.9815 19.0538 24.8738 19.2865 23.5893L20.1266 18.8118C20.3034 17.781 20.592 16.5546 20.592 16.5546C18.9165 16.9642 16.9152 16.8432 16.9152 16.8432H14.8465L15.1211 15.284H17.1689C18.6093 15.291 20.7642 15.5633 20.7642 15.5633C20.7642 15.5633 20.8037 14.9443 21.0318 13.6574L21.7345 9.66888C21.8509 8.89164 22.293 7.27202 22.293 7.27202C20.4081 7.68623 18.9747 7.62108 18.9747 7.62108C19.3563 6.74378 20.2685 5.41504 20.2685 5.41504H17.0572L15.9356 7.61875C14.7325 7.61875 13.2362 7.279 13.2362 7.279C13.2967 8.49837 12.6498 12.6801 12.6498 12.6801L10.9464 22.3745C10.346 25.3857 9.81543 26.7447 9.81543 26.7447H13.2408C13.2408 26.7447 13.1757 26.263 13.2362 25.9838H19.0026V25.9815ZM14.3741 19.6915H17.1363L16.5383 23.0889H13.7761L14.3741 19.6915ZM15.9914 10.4833H18.7559L18.4139 12.4288H15.6517L15.9914 10.4833Z" fill="#1F286F"></path><path d="M58.8162 24.762L61.4225 26.1396C61.4225 26.1396 66.2488 23.5938 67.5799 18.1881L64.813 17.832C63.568 22.4466 59.0443 24.7643 59.0443 24.7643" fill="#1F286F"></path><path d="M81.0136 25.0578L78.3608 26.461C78.1397 26.3284 73.8463 24.8018 72.4757 18.307L75.1355 17.8184C76.4759 23.5289 80.767 24.9182 81.0136 25.0578Z" fill="#1F286F"></path><path d="M100.503 6.07373L99.7792 6.63222L88.6978 6.62989C86.28 6.61593 84.565 6.42279 84.565 6.42279L84.0112 9.58059C84.0112 9.58059 86.0031 9.38744 88.1836 9.37813L97.5965 9.38744C97.5965 9.38744 94.0896 12.0356 92.7702 12.9385L90.8387 12.5941C90.8387 12.5941 90.9481 13.5622 90.5153 15.9962L89.2703 23.0774C89.1609 23.6964 88.7165 23.999 88.2068 23.999C87.6739 23.999 85.9193 23.9315 84.451 23.8384C84.821 24.7669 85.2399 25.956 85.2724 26.952C90.9574 26.952 91.6997 26.2096 92.2349 23.1705L93.5567 15.6518C96.6214 13.7949 100.999 10.0181 100.999 10.0181C101.915 9.26178 102.886 8.64977 102.886 8.64977L100.503 6.07373Z" fill="#1F286F"></path><path d="M32.5136 11.3492H30.3541L30.6985 9.38289H31.6107C31.6107 9.38289 35.2409 9.47597 35.8157 9.711L36.4207 6.26698C36.4207 6.26698 33.4072 6.59974 32.1227 6.59974H27.9899C27.9899 6.59974 25.7629 6.65094 23.4079 6.26465L22.7982 9.73194C22.7982 9.73194 26.1073 9.38056 27.5012 9.38056H27.8293L27.4849 11.3469H26.0002C24.0851 11.3469 22.5981 11.0048 22.5981 11.0048C22.5981 11.0048 22.4724 12.3708 22.2072 14.0114L21.2461 19.4846C20.8668 21.2508 20.3083 23.2614 20.3083 23.2614H23.7151C23.7151 23.2614 23.8151 21.1252 24.0921 19.5474L25.0392 14.1603H26.9916L25.4534 22.9193C25.2346 24.1666 24.4621 26.9963 24.4621 26.9963H27.8805C27.8805 26.9963 27.9224 25.1928 28.3203 22.9263L28.6135 21.2113C29.0161 21.5743 30.0563 22.2282 30.1168 23.3172L30.894 23.3219C31.6968 23.28 33.3607 22.8821 33.84 20.1501L34.9175 14.0742C35.2572 11.824 35.5946 11.0048 35.5946 11.0048C35.5946 11.0048 33.4491 11.3492 32.5136 11.3492ZM30.9755 20.1827C30.9033 20.5783 30.5682 20.5527 30.5682 20.5527C30.154 20.5643 29.2325 20.5178 28.7694 20.32L29.8608 14.1626H32.0436L30.9755 20.1827Z" fill="#1F286F"></path><path d="M71.8662 16.3406L73.5882 17.5367C74.5911 16.9643 75.8803 15.1538 75.8803 15.1538C76.8298 16.0428 78.4284 18.5769 78.4284 18.5769L80.6066 16.7013C80.6066 16.7013 78.6635 13.9275 77.5162 12.9431C77.863 12.3428 78.2074 11.5353 78.482 10.9349L78.6123 10.644C80.439 10.7092 80.9254 10.8046 80.9254 10.8046L81.4815 7.63515C81.4815 7.63515 79.4477 7.84226 76.9112 7.84226H73.3694C73.6324 6.56471 73.9931 5.41748 73.9931 5.41748H70.712C70.712 5.41748 70.6957 6.54144 70.4909 7.84226H66.7723C64.4126 7.84226 62.444 7.63515 62.444 7.63515L61.8878 10.8046C61.8878 10.8046 63.1537 10.6813 64.8897 10.6254C63.7285 13.0083 62.0158 15.1887 60.0867 16.4035C60.7196 16.9084 61.3642 17.795 61.8133 18.3954C62.9606 17.6019 64.1008 16.5012 65.0759 15.3237L66.9003 17.681L69.0621 15.9776L68.1708 21.0436C67.4285 25.1485 66.8514 26.9892 66.8514 26.9892H70.2698C70.2698 26.9892 70.4699 24.3061 71.0377 21.0529L71.8662 16.3406ZM75.6127 10.5975C74.6726 12.8454 72.8645 14.7769 71.9918 15.6239L72.8761 10.5975H75.6127ZM66.6908 12.978C67.0329 12.4009 67.6868 11.2118 67.9614 10.6114L67.966 10.5975H70.0045L69.1342 15.5541C68.5664 14.9048 67.3098 13.5738 66.6908 12.978Z" fill="#1F286F"></path><path d="M55.5581 9.38265H50.1663L50.3036 8.60542H54.2689C56.2096 8.63334 57.2684 8.74271 57.2684 8.74271L57.7269 6.12712C57.7269 6.12712 55.6488 6.37611 54.604 6.3319H50.7038C50.7899 5.8851 51.0482 5.15674 51.0482 5.15674H47.4832C47.4832 5.15674 47.5949 6.23183 47.3692 7.75837L47.083 9.38265H43.6064C41.5981 9.38265 39.413 9.24535 39.413 9.24535C39.413 9.24535 39.2408 10.9976 38.9779 12.9198L38.8196 13.8296C37.3164 22.4769 34.4564 24.8808 34.4564 24.8808L37.1814 26.7377C37.6445 26.1886 38.068 25.5486 38.4543 24.8528C39.4503 26.0094 39.3851 27.1776 39.3851 27.1776C44.2998 26.1955 46.0404 23.6358 47.0992 20.0056L47.3738 18.9724L44.2859 18.7304C43.625 23.6055 39.9831 24.3874 38.6404 24.5084C40.9489 20.1196 41.8704 13.8273 41.8704 13.8273L42.1752 12.0937H48.5955C48.9818 11.7143 49.8382 10.6113 51.8231 10.6113C53.6476 10.6113 54.3666 12.0634 54.3666 12.0634L54.3713 12.0937L55.5743 12.0913C55.5743 12.0913 55.6209 12.7499 55.2998 13.9064H58.2016C58.2016 13.9064 58.2458 12.8034 58.4296 11.8214L58.5134 11.3443C58.6251 10.8277 59.0207 9.2407 59.0207 9.2407C59.0207 9.2407 57.2475 9.38265 55.5581 9.38265Z" fill="#1F286F"></path><path d="M53.201 24.1034H52.2166C51.6162 24.1034 51.1322 23.9637 51.2649 23.2168L51.5813 21.4203C51.7745 20.3056 52.1561 18.9932 52.1561 18.9932L49.0495 18.9141C49.0495 18.9141 49.0542 19.6448 48.7749 21.2597L48.4701 22.991C47.9674 25.8487 48.3514 26.8353 51.209 26.8353H53.2638C55.4489 26.8353 56.4658 25.9697 57.4013 22.5582C56.5473 22.3651 55.4722 21.8368 54.9416 21.3086C54.4669 23.4727 54.2435 24.0917 53.201 24.1034Z" fill="#1F286F"></path><path d="M54.8788 14.4488C54.788 14.1765 54.6508 14.0392 54.6508 14.0392L53.308 15.6193C53.308 15.6193 51.458 15.6984 51.458 15.6891C51.458 15.6798 50.5924 14.2254 50.5924 14.2254L50.5994 14.2114C50.5831 14.1835 50.5738 14.1672 50.5738 14.1672L51.4092 12.5755L53.436 12.0682C53.3569 11.882 53.0218 11.3096 51.8862 11.3096C50.5296 11.3096 49.5429 12.0054 48.9402 12.7779C48.2467 13.6645 47.1367 14.4185 45.3961 14.8886L41.845 15.8566L42.6339 18.5281L46.1245 17.4623C46.8947 17.2342 48.4306 17.2691 49.4219 17.7345C50.0525 18.0301 52.4866 18.7817 53.9992 16.9596C54.9928 15.7659 55.0138 14.9258 54.8788 14.4488Z" fill="#1F286F"></path></svg>